<?xml version="1.0" encoding="UTF-8"?>
<svg width="30px" height="30px" viewBox="0 0 30 30" version="1.1" xmlns="http://www.w3.org/2000/svg" xmlns:xlink="http://www.w3.org/1999/xlink">
    <!-- Generator: Sketch 46 (44423) - http://www.bohemiancoding.com/sketch -->
    <title>youtube</title>
    <desc>Created with Sketch.</desc>
    <defs></defs>
    <g id="Symbols" stroke="none" stroke-width="1" fill="none" fill-rule="evenodd">
        <g id="Footer" transform="translate(-188.000000, -226.000000)" fill="#FFFFFF">
            <g id="Social-Links">
                <g transform="translate(116.000000, 226.000000)">
                    <path d="M87,0 C91.1435392,0 94.6793835,1.46410573 97.6076389,4.39236111 C100.535894,7.32061649 102,10.8564608 102,15 C102,19.1435392 100.535894,22.6793835 97.6076389,25.6076389 C94.6793835,28.5358943 91.1435392,30 87,30 C82.8564608,30 79.3206165,28.5358943 76.3923611,25.6076389 C73.4641057,22.6793835 72,19.1435392 72,15 C72,10.8564608 73.4641057,7.32061649 76.3923611,4.39236111 C79.3206165,1.46410573 82.8564608,0 87,0 L87,0 Z M87,21.875 C91.6759493,21.875 94.4074035,21.585651 95.1944444,21.0069444 C95.9814854,20.4282378 96.375,18.4259431 96.375,15 C96.375,11.5740569 95.9814854,9.57176215 95.1944444,8.99305556 C94.4074035,8.41434896 91.6759493,8.125 87,8.125 C82.3240507,8.125 79.5925965,8.41434896 78.8055556,8.99305556 C78.0185146,9.57176215 77.625,11.5740569 77.625,15 C77.625,18.4259431 78.0185146,20.4282378 78.8055556,21.0069444 C79.5925965,21.585651 82.3240507,21.875 87,21.875 L87,21.875 Z M84.5,18.75 L84.5,11.25 L90.75,15 L84.5,18.75 Z" id="youtube"></path>
                </g>
            </g>
        </g>
    </g>
</svg>