<svg width="95" height="32" viewBox="0 0 95 32" fill="none" xmlns="http://www.w3.org/2000/svg">
<path d="M40.2609 16.4103C40.2609 20.8521 36.7861 24.1251 32.5217 24.1251C28.2574 24.1251 24.7826 20.8521 24.7826 16.4103C24.7826 11.9373 28.2574 8.69556 32.5217 8.69556C36.7861 8.69556 40.2609 11.9373 40.2609 16.4103ZM36.873 16.4103C36.873 13.6347 34.8591 11.7356 32.5217 11.7356C30.1843 11.7356 28.1704 13.6347 28.1704 16.4103C28.1704 19.1582 30.1843 21.0851 32.5217 21.0851C34.8591 21.0851 36.873 19.1547 36.873 16.4103Z" fill="#EA4335"/>
<path d="M56.9565 16.4103C56.9565 20.8521 53.4817 24.1251 49.2174 24.1251C44.9531 24.1251 41.4783 20.8521 41.4783 16.4103C41.4783 11.9408 44.9531 8.69556 49.2174 8.69556C53.4817 8.69556 56.9565 11.9373 56.9565 16.4103ZM53.5687 16.4103C53.5687 13.6347 51.5548 11.7356 49.2174 11.7356C46.88 11.7356 44.8661 13.6347 44.8661 16.4103C44.8661 19.1582 46.88 21.0851 49.2174 21.0851C51.5548 21.0851 53.5687 19.1547 53.5687 16.4103Z" fill="#FBBC05"/>
<path d="M72.9566 9.16164V23.0121C72.9566 28.7095 69.5966 31.0364 65.6244 31.0364C61.8853 31.0364 59.6348 28.5356 58.7861 26.4903L61.7357 25.2625C62.2609 26.5182 63.5479 27.9999 65.6209 27.9999C68.1635 27.9999 69.7392 26.4312 69.7392 23.4782V22.3686H69.6209C68.8627 23.3042 67.4018 24.1216 65.5583 24.1216C61.7009 24.1216 58.167 20.7616 58.167 16.4382C58.167 12.0834 61.7009 8.69556 65.5583 8.69556C67.3983 8.69556 68.8592 9.51295 69.6209 10.4208H69.7392V9.16512H72.9566V9.16164ZM69.9792 16.4382C69.9792 13.7216 68.167 11.7356 65.8609 11.7356C63.5235 11.7356 61.5653 13.7216 61.5653 16.4382C61.5653 19.1269 63.5235 21.0851 65.8609 21.0851C68.167 21.0851 69.9792 19.1269 69.9792 16.4382Z" fill="#4285F4"/>
<path d="M78.2609 1.04346V23.6522H74.9565V1.04346H78.2609Z" fill="#34A853"/>
<path d="M91.1374 18.9495L93.767 20.7026C92.9183 21.9582 90.873 24.1217 87.3391 24.1217C82.9565 24.1217 79.6835 20.7339 79.6835 16.4069C79.6835 11.8191 82.9843 8.69214 86.96 8.69214C90.9635 8.69214 92.9217 11.8782 93.5617 13.6L93.913 14.4765L83.6 18.7478C84.3896 20.2956 85.6174 21.0852 87.3391 21.0852C89.0643 21.0852 90.2609 20.2365 91.1374 18.9495ZM83.0435 16.1739L89.9374 13.3113C89.5583 12.3478 88.4174 11.6765 87.0748 11.6765C85.353 11.6765 82.9565 13.1965 83.0435 16.1739Z" fill="#EA4335"/>
<path d="M12.2748 14.4036V11.1305H23.3044C23.4122 11.701 23.4679 12.3757 23.4679 13.1062C23.4679 15.5618 22.7966 18.5984 20.6331 20.7618C18.5287 22.9531 15.84 24.1218 12.2783 24.1218C5.67655 24.1218 0.125244 18.7444 0.125244 12.1427C0.125244 5.54097 5.67655 0.163574 12.2783 0.163574C15.9305 0.163574 18.5322 1.59662 20.487 3.46444L18.1774 5.77401C16.7757 4.45923 14.8766 3.43662 12.2748 3.43662C7.45394 3.43662 3.68351 7.32184 3.68351 12.1427C3.68351 16.9636 7.45394 20.8488 12.2748 20.8488C15.4018 20.8488 17.1826 19.5931 18.3235 18.4523C19.2487 17.5271 19.8574 16.2053 20.0974 14.4001L12.2748 14.4036Z" fill="#4285F4"/>
</svg>
