<svg width="80" height="40" viewBox="0 0 80 40" fill="none" xmlns="http://www.w3.org/2000/svg">
<path d="M64.722 22.0651L66.018 21.7651C66.0608 21.7557 66.1032 21.7443 66.145 21.7311C66.5028 21.6349 66.8093 21.4037 66.9999 21.086C67.1905 20.7683 67.2505 20.3891 67.167 20.0281L67.161 20.0051C67.1184 19.8321 67.0438 19.6687 66.941 19.5231C66.7958 19.3392 66.6161 19.1853 66.412 19.0701C66.1717 18.933 65.9201 18.8166 65.66 18.7221L64.24 18.2041C63.443 17.9081 62.645 17.6191 61.84 17.3371C61.319 17.1521 60.877 16.9891 60.492 16.8711C60.42 16.8481 60.34 16.8261 60.275 16.8041C59.81 16.6611 59.485 16.6021 59.208 16.6011C59.0237 16.5943 58.8401 16.6278 58.67 16.6991C58.4923 16.7755 58.3328 16.8887 58.202 17.0311C58.137 17.1052 58.076 17.1827 58.019 17.2631C57.9081 17.4334 57.8166 17.6155 57.746 17.8061C57.4825 18.5855 57.3514 19.4035 57.358 20.2261C57.364 20.9701 57.384 21.9241 57.793 22.5711C57.891 22.7371 58.023 22.8811 58.181 22.9921C58.472 23.1931 58.766 23.2201 59.073 23.2421C59.53 23.2741 59.973 23.1621 60.415 23.0601L64.719 22.0641L64.722 22.0651ZM79.173 15.1831C78.8193 14.4409 78.3437 13.7632 77.766 13.1781C77.6911 13.1041 77.6109 13.0356 77.526 12.9731C77.4479 12.9143 77.3668 12.8595 77.283 12.8091C77.1964 12.7621 77.1072 12.7197 77.016 12.6821C76.8364 12.6113 76.6439 12.5793 76.451 12.5881C76.2667 12.5993 76.0869 12.6501 75.924 12.7371C75.677 12.8601 75.41 13.0571 75.054 13.3871C75.005 13.4371 74.944 13.4921 74.888 13.5431C74.595 13.8191 74.268 14.1601 73.88 14.5561C73.28 15.1621 72.69 15.7721 72.103 16.3881L71.053 17.4781C70.861 17.6781 70.686 17.8921 70.53 18.1211C70.397 18.3141 70.303 18.5311 70.253 18.7611C70.2235 18.937 70.2276 19.1168 70.265 19.2911L70.271 19.3141C70.3542 19.6746 70.574 19.9888 70.8842 20.1905C71.1944 20.3921 71.5708 20.4655 71.934 20.3951C71.991 20.3871 72.036 20.3771 72.064 20.3711L77.664 19.0751C78.106 18.9731 78.554 18.8791 78.95 18.6491C79.216 18.4941 79.469 18.3411 79.642 18.0331C79.735 17.8634 79.7912 17.676 79.807 17.4831C79.893 16.7201 79.494 15.8531 79.173 15.1831ZM69.149 17.5411C69.555 17.0311 69.553 16.2711 69.589 15.6491C69.711 13.5731 69.839 11.4971 69.94 9.41912C69.98 8.63312 70.064 7.85712 70.016 7.06412C69.978 6.41012 69.973 5.65912 69.56 5.12212C68.83 4.17612 67.276 4.25412 66.216 4.40212C65.891 4.44712 65.566 4.50712 65.243 4.58512C64.92 4.66312 64.601 4.74712 64.288 4.84812C63.271 5.18112 61.84 5.79312 61.598 6.96612C61.462 7.62912 61.786 8.30612 62.037 8.91212C62.341 9.64512 62.757 10.3051 63.137 10.9951C64.138 12.8181 65.159 14.6281 66.177 16.4411C66.481 16.9811 66.812 17.6671 67.4 17.9471C67.439 17.9641 67.478 17.9791 67.519 17.9921C67.782 18.0921 68.069 18.1121 68.344 18.0471L68.394 18.0361C68.647 17.9661 68.876 17.8291 69.056 17.6371C69.089 17.6071 69.12 17.5751 69.149 17.5411ZM68.665 23.1001C68.5067 22.8771 68.2817 22.7099 68.0225 22.6226C67.7633 22.5353 67.4831 22.5323 67.222 22.6141C67.16 22.6341 67.101 22.6591 67.042 22.6881C66.953 22.7342 66.868 22.7877 66.788 22.8481C66.555 23.0201 66.358 23.2451 66.18 23.4701C66.134 23.5281 66.093 23.6041 66.039 23.6541L65.139 24.8941C64.628 25.5881 64.124 26.2841 63.625 26.9911C63.299 27.4481 63.018 27.8331 62.795 28.1741C62.753 28.2391 62.709 28.3111 62.669 28.3681C62.402 28.7811 62.251 29.0821 62.174 29.3501C62.1157 29.5286 62.0973 29.7177 62.12 29.9041C62.145 30.0981 62.21 30.2841 62.312 30.4511C62.366 30.5351 62.424 30.6161 62.486 30.6941C62.621 30.8493 62.7729 30.9888 62.939 31.1101C63.561 31.5431 64.242 31.8541 64.959 32.0941C65.5549 32.2916 66.1743 32.4096 66.801 32.4451C66.907 32.4501 67.014 32.4481 67.121 32.4381C67.2193 32.4296 67.3171 32.4159 67.414 32.3971C67.5111 32.3743 67.6069 32.3462 67.701 32.3131C67.8814 32.2492 68.0455 32.1462 68.1815 32.0115C68.3176 31.8769 68.4222 31.7139 68.488 31.5341C68.592 31.2741 68.66 30.9441 68.705 30.4561C68.709 30.3861 68.719 30.3021 68.726 30.2261C68.761 29.8201 68.778 29.3431 68.804 28.7821C68.847 27.9201 68.882 27.0621 68.909 26.2001L68.966 24.6701C68.979 24.3161 68.968 23.9261 68.87 23.5751C68.8271 23.4068 68.7575 23.2465 68.664 23.1001H68.665ZM78.835 25.4931C78.647 25.2871 78.381 25.0811 77.96 24.8271C77.9 24.7931 77.828 24.7481 77.763 24.7091C77.413 24.4991 76.991 24.2771 76.499 24.0091C75.7432 23.596 74.9838 23.1893 74.221 22.7891L72.871 22.0731C72.801 22.0531 72.73 22.0031 72.664 21.9711C72.4046 21.8383 72.1289 21.7398 71.844 21.6781C71.7457 21.6595 71.646 21.6495 71.546 21.6481C71.4815 21.6462 71.4169 21.6499 71.353 21.6591C71.0829 21.7007 70.8329 21.8266 70.6386 22.0188C70.4443 22.2109 70.3157 22.4595 70.271 22.7291C70.251 22.9011 70.257 23.0751 70.29 23.2441C70.356 23.6041 70.517 23.9591 70.683 24.2701L71.404 25.6211C71.805 26.3831 72.212 27.1411 72.628 27.8961C72.897 28.3881 73.12 28.8101 73.329 29.1591C73.369 29.2251 73.414 29.2961 73.449 29.3561C73.703 29.7761 73.908 30.0411 74.115 30.2301C74.25 30.3601 74.411 30.4591 74.588 30.5201C74.773 30.5811 74.97 30.6031 75.164 30.5841C75.2629 30.572 75.361 30.5547 75.458 30.5321C75.554 30.5071 75.648 30.4761 75.741 30.4411C75.841 30.4031 75.938 30.3581 76.031 30.3061C76.5789 29.9987 77.0839 29.6205 77.533 29.1811C78.072 28.6511 78.548 28.0721 78.918 27.4111C78.9698 27.3172 79.0146 27.2196 79.052 27.1191C79.087 27.0268 79.117 26.9326 79.142 26.8371C79.164 26.7391 79.181 26.6411 79.192 26.5421C79.2106 26.3476 79.1881 26.1514 79.126 25.9661C79.0651 25.7891 78.9661 25.6277 78.836 25.4931H78.835Z" fill="#FF1A1A"/>
<path fill-rule="evenodd" clip-rule="evenodd" d="M32.352 12.3521C32.352 11.2391 33.26 10.3291 34.354 10.3291C35.434 10.3291 36.309 11.2391 36.356 12.3681V28.1581C36.356 29.2721 35.449 30.1811 34.354 30.1811C34.0893 30.1811 33.8272 30.1286 33.583 30.0267C33.3387 29.9248 33.1171 29.7755 32.9309 29.5873C32.7447 29.3992 32.5977 29.176 32.4983 28.9307C32.3989 28.6854 32.3492 28.4228 32.352 28.1581V12.3531V12.3521ZM30.492 22.1061C30.476 22.4191 30.398 22.9991 29.992 23.4231C29.553 23.8781 28.959 23.9871 28.615 23.9871C27.184 23.9951 25.753 23.9991 24.322 24.0031C22.892 24.0071 21.46 24.0111 20.029 24.0191C20.155 24.4111 20.405 25.0071 20.968 25.5551C21.312 25.8851 21.64 26.0731 21.781 26.1511C21.953 26.2611 22.547 26.5751 23.282 26.5751C24.064 26.5751 24.752 26.3241 25.425 25.9791L25.481 25.9491C25.948 25.7081 26.431 25.4581 26.941 25.3671C27.442 25.2891 27.974 25.3831 28.365 25.7271C28.834 26.1361 29.022 26.7321 28.85 27.3431C28.646 28.0331 28.068 28.6291 27.458 28.9901C27.114 29.1931 26.738 29.3661 26.363 29.5071C25.395 29.8502 24.3715 30.0096 23.345 29.9771C23.095 29.9771 22.829 29.9771 22.563 29.9471C22.2837 29.9111 22.0069 29.8584 21.734 29.7891C21.3024 29.6955 20.8828 29.5536 20.483 29.3661C20.0827 29.1887 19.7002 28.9734 19.341 28.7231C18.9828 28.4656 18.6481 28.1768 18.341 27.8601C18.0353 27.5398 17.7576 27.1939 17.511 26.8261C16.667 25.5401 16.276 23.9561 16.354 22.4191C16.417 20.9141 16.917 19.4091 17.824 18.1851C17.9204 18.0417 18.0273 17.9056 18.144 17.7781C18.19 17.7251 18.235 17.6731 18.278 17.6211C19.398 16.2511 20.895 15.8181 21.512 15.6391L21.546 15.6291C22.7986 15.2734 24.1254 15.2734 25.378 15.6291C25.675 15.7081 27.348 16.2251 28.646 17.6211C28.709 17.6841 28.881 17.8871 29.1 18.1851C29.6552 18.9411 30.063 19.795 30.302 20.7021L30.304 20.7101C30.398 21.0551 30.492 21.5251 30.492 22.1061ZM21.312 19.5181C20.6942 20.0204 20.2643 20.7167 20.092 21.4941H26.91C26.726 20.7179 26.292 20.0236 25.675 19.5181C25.0532 19.0193 24.2821 18.7432 23.485 18.7341C23.188 18.7341 22.219 18.7811 21.312 19.5181ZM47.24 15.3631C45.458 15.3631 43.831 16.1631 42.674 17.4641V17.4171C42.6594 16.8883 42.4353 16.3869 42.0511 16.0232C41.6668 15.6596 41.1538 15.4635 40.625 15.4781C40.0961 15.4927 39.5948 15.7168 39.2311 16.101C38.8675 16.4853 38.6714 16.9983 38.686 17.5271V32.5971C38.686 33.7101 39.578 34.6031 40.688 34.6031C41.798 34.6031 42.69 33.7101 42.69 32.5961V27.8921C43.847 29.1781 45.458 29.9931 47.256 29.9931C50.837 29.9931 53.746 26.7471 53.746 22.7021C53.73 18.6561 50.821 15.3621 47.24 15.3621V15.3631ZM46.364 26.7161C44.332 26.7161 42.674 24.9441 42.674 22.7331C42.674 20.5061 44.316 18.7341 46.364 18.7341C48.398 18.7341 50.055 20.5061 50.055 22.7331C50.04 24.9431 48.398 26.7161 46.365 26.7161H46.364ZM13.352 23.7521L12.695 25.1951C12.398 25.8221 12.101 26.4651 11.819 27.1081C11.729 27.3051 11.639 27.5061 11.547 27.7111C10.297 30.4911 8.81398 33.7921 5.57998 34.4941C4.01598 34.8391 1.65398 34.3681 0.778983 32.8941C-0.0970167 31.4041 1.20098 29.6951 2.87398 30.0871C3.13798 30.1471 3.39798 30.2761 3.65898 30.4061C4.09498 30.6231 4.53798 30.8441 5.01698 30.7461C5.46998 30.6681 5.75198 30.3381 6.11098 29.9151C6.49632 29.4658 6.77434 28.9348 6.92398 28.3621C6.91557 28.3441 6.9079 28.3257 6.90098 28.3071C6.89402 28.2888 6.88635 28.2708 6.87798 28.2531C6.46998 27.4931 6.11498 26.8141 5.81798 26.2471C5.62398 25.8771 5.45598 25.5551 5.31398 25.2891L4.63098 23.9951C4.13098 23.0471 4.04898 22.8911 3.82798 22.4821C3.34192 21.5641 2.83106 20.6594 2.29598 19.7691C1.71598 18.7971 1.12298 17.7151 1.60698 16.5701C1.7891 16.1262 2.13135 15.767 2.56588 15.5636C3.00041 15.3603 3.49549 15.3276 3.95298 15.4721C4.95998 15.7781 5.40498 16.7361 5.82298 17.6321C5.89798 17.7931 5.97298 17.9531 6.04898 18.1071C6.72098 19.4401 7.37798 20.7731 8.03498 22.1051C8.09298 22.2381 8.18098 22.4191 8.28798 22.6381C8.38398 22.8341 8.49498 23.0611 8.61298 23.3131C8.67498 23.4431 8.73298 23.5651 8.78698 23.6751C8.85498 23.8151 8.91398 23.9371 8.95698 24.0351C9.26198 23.2741 9.57098 22.5171 9.87998 21.7611C10.189 21.0041 10.498 20.2471 10.803 19.4871C10.811 19.4441 10.884 19.2821 10.993 19.0371C11.1568 18.6753 11.3148 18.3109 11.467 17.9441C11.873 16.9551 12.361 15.7661 13.446 15.4411C13.8307 15.3299 14.2405 15.341 14.6185 15.4731C14.9966 15.6051 15.3242 15.8515 15.556 16.1781C15.792 16.5081 15.886 16.8841 15.901 17.2601C15.914 18.0921 15.511 18.9851 15.166 19.7521C15.082 19.9391 15.002 20.1181 14.931 20.2871L14.89 20.3791C14.794 20.5931 14.535 21.1771 14.087 22.1371C13.925 22.4811 13.77 22.8261 13.613 23.1741C13.527 23.3651 13.441 23.5581 13.352 23.7521Z" fill="black"/>
</svg>
