<?xml version="1.0" encoding="UTF-8"?>
<svg width="218px" height="48px" viewBox="0 0 218 48" version="1.1" xmlns="http://www.w3.org/2000/svg" xmlns:xlink="http://www.w3.org/1999/xlink">
    <!-- Generator: Sketch 43.2 (39069) - http://www.bohemiancoding.com/sketch -->
    <title>Oceana_Short</title>
    <desc>Created with Sketch.</desc>
    <defs></defs>
    <g id="Symbols" stroke="none" stroke-width="1" fill="none" fill-rule="evenodd">
        <g id="Header" transform="translate(-116.000000, -72.000000)">
            <g id="Oceana_Short">
                <g transform="translate(116.000000, 72.000000)">
                    <path d="M3.37475455,14.3918591 C3.37475455,21.1211182 8.16700909,25.6736864 14.4371455,25.6736864 C20.7271636,25.6736864 25.5194182,21.1211182 25.5194182,14.3918591 C25.5194182,7.6626 20.7271636,3.11003182 14.4371455,3.11003182 C8.16700909,3.11003182 3.37475455,7.6626 3.37475455,14.3918591 Z M28.8739227,14.3918591 C28.8739227,22.7787188 22.7436955,28.7689909 14.4371455,28.7689909 C6.13022727,28.7689909 0,22.7787188 0,14.3918591 C0,6.00541364 6.13022727,0.0147272727 14.4371455,0.0147272727 C22.7436955,0.0147272727 28.8739227,6.00541364 28.8739227,14.3918591 L28.8739227,14.3918591 Z" id="Fill-1" fill="#3289BD"></path>
                    <path d="M194.531165,15.8906352 L199.546722,3.58940455 L204.670892,16.1567386 C204.268653,16.2098028 203.873318,16.2665489 203.49179,16.3266085 C200.375591,16.8152778 197.634938,17.2418165 194.531165,15.8906352 Z M217.794733,18.0991278 C214.136847,16.3173119 210.841159,15.8502733 207.944028,15.900392 L201.583688,0.414204545 L197.609625,0.414204545 L186.127875,28.3695136 L189.463142,28.3695136 L192.618,20.5821 L193.100318,19.3996381 C194.983568,19.845 196.62658,20.0255932 198.101148,20.0255932 C200.990915,20.0255932 203.245108,19.3466659 205.452818,18.6821898 C205.523693,18.6608813 205.595949,18.6391585 205.667284,18.6176659 L206.455653,20.5821 L209.630761,28.3695136 L213.065391,28.3695136 L208.71767,17.7837801 C211.314687,17.1986011 214.278597,16.9629648 217.794733,18.0991278 L217.794733,18.0991278 Z" id="Fill-3" fill="#3289BD"></path>
                    <path d="M53.5515852,3.11003182 C57.2453693,3.11003182 60.4204773,4.84711364 62.2774943,7.60295455 L64.9532557,5.80549091 C62.7570511,2.23159602 58.4235511,0.0147272727 53.5515852,0.0147272727 C45.244621,0.0147272727 39.1143938,6.00541364 39.1143938,14.3918591 C39.1143938,22.7787188 45.244621,28.7689909 53.5515852,28.7689909 C58.3839716,28.7689909 62.5370625,26.6121818 64.8736364,23.1177682 L62.2774943,21.2010136 C60.3804375,24.0165 57.2858693,25.6736864 53.5515852,25.6736864 C47.2814489,25.6736864 42.4891483,21.1211182 42.4891483,14.3918591 C42.4891483,7.6626 47.2814489,3.11003182 53.5515852,3.11003182" id="Fill-4" fill="#3289BD"></path>
                    <polyline id="Fill-5" fill="#3289BD" points="82.8818693 15.7898915 98.6566193 15.7898915 98.6566193 12.7943182 82.8818693 12.7943182 82.8818693 3.42961364 99.1559659 3.42961364 99.1559659 0.414204545 79.6667216 0.414204545 79.6667216 28.3695136 99.3354545 28.3695136 99.3354545 25.3544727 82.8818693 25.3544727 82.8818693 15.7898915"></polyline>
                    <polyline id="Fill-6" fill="#3289BD" points="171.934006 22.8582 154.621176 0.414204545 151.725886 0.414204545 151.725886 28.3695136 154.941034 28.3695136 154.941034 5.92551818 172.253403 28.3695136 175.148693 28.3695136 175.148693 0.414204545 171.934006 0.414204545 171.934006 22.8582"></polyline>
                    <path d="M120.175466,15.8906352 L125.191483,3.58940455 L130.315653,16.1567386 C129.912955,16.2098028 129.51808,16.2665489 129.136091,16.3266085 C126.019892,16.8152778 123.279699,17.2418165 120.175466,15.8906352 Z M143.439034,18.0991278 C139.781608,16.3173119 136.48592,15.8502733 133.58833,15.900392 L127.227989,0.414204545 L123.254386,0.414204545 L111.772636,28.3695136 L115.107443,28.3695136 L118.262301,20.5821 L118.744619,19.3996381 C120.627869,19.845 122.271341,20.0255932 123.745449,20.0255932 C126.635676,20.0255932 128.889869,19.3466659 131.097119,18.6821898 C131.167994,18.6608813 131.24071,18.6391585 131.312045,18.6176659 L132.100415,20.5821 L135.275063,28.3695136 L138.709739,28.3695136 L134.361972,17.7837801 C136.959034,17.1986011 139.922898,16.9629648 143.439034,18.0991278 L143.439034,18.0991278 Z" id="Fill-7" fill="#3289BD"></path>
                    <path d="M4.376025,36.7730795 L3.24110455,36.7730795 L3.24110455,35.858746 L6.81895739,35.858746 L6.81895739,36.7730795 L5.54214886,36.7730795 L8.41065341,44.9841324 C8.52092386,45.3306375 8.58406705,45.7090364 8.58406705,45.7090364 L8.63124034,45.7090364 C8.63124034,45.7090364 8.69438352,45.3306375 8.80465398,44.9841324 L11.6727443,36.7730795 L10.4119517,36.7730795 L10.4119517,35.858746 L13.9897585,35.858746 L13.9897585,36.7730795 L12.8392364,36.7730795 L9.21430227,46.9381193 L8.00063693,46.9381193 L4.376025,36.7730795" id="Fill-8" fill="#787976"></path>
                    <polyline id="Fill-9" fill="#787976" points="19.4250886 46.0239699 20.8749426 46.0239699 20.8749426 36.7730795 19.4250886 36.7730795 19.4250886 35.858746 27.2576966 35.858746 27.2576966 38.1597903 26.2490625 38.1597903 26.2490625 36.8042369 21.9782915 36.8042369 21.9782915 40.8864068 26.1703176 40.8864068 26.1703176 41.8318977 21.9782915 41.8318977 21.9782915 45.9927665 26.5483943 45.9927665 26.5483943 44.5585142 27.5414267 44.5585142 27.5414267 46.9381193 19.4250886 46.9381193 19.4250886 46.0239699"></polyline>
                    <polyline id="Fill-10" fill="#787976" points="34.3638358 46.0239699 35.8136898 46.0239699 35.8136898 36.7730795 34.3638358 36.7730795 34.3638358 35.858746 38.3668926 35.858746 38.3668926 36.7730795 36.9170386 36.7730795 36.9170386 46.0239699 38.3668926 46.0239699 38.3668926 46.9381193 34.3638358 46.9381193 34.3638358 46.0239699"></polyline>
                    <path d="M45.1424966,46.0239699 L46.5924886,46.0239699 L46.5924886,36.7730795 L45.1424966,36.7730795 L45.1424966,35.858746 L47.664358,35.858746 L53.8732841,44.6057335 C54.031142,44.857846 54.2041875,45.2834642 54.2041875,45.2834642 L54.2359432,45.2834642 C54.2359432,45.2834642 54.172892,44.8107188 54.189,44.5110188 L54.189,36.7730795 L52.7231761,36.7730795 L52.7231761,35.858746 L56.7418807,35.858746 L56.7418807,36.7730795 L55.2917045,36.7730795 L55.2917045,46.9381193 L54.2202955,46.9381193 L48.0104489,38.1913619 C47.8530511,37.9392034 47.6795455,37.5135852 47.6795455,37.5135852 L47.64825,37.5135852 C47.64825,37.5135852 47.7113011,37.9863767 47.6956534,38.2701068 L47.6956534,46.0239699 L49.161017,46.0239699 L49.161017,46.9381193 L45.1424966,46.9381193 L45.1424966,46.0239699" id="Fill-11" fill="#787976"></path>
                    <path d="M70.0562557,43.8492119 L70.0562557,44.6528608 C70.0562557,45.582796 71.2068239,46.1184545 72.4830341,46.1184545 C73.9175625,46.1184545 74.9576761,45.4093824 74.9576761,44.1169722 C74.9576761,42.6671642 73.6179545,42.1628472 72.1838864,41.6269125 C70.7341705,41.0754682 69.2209432,40.4924063 69.2209432,38.5538369 C69.2209432,36.6152676 70.7811136,35.6697307 72.5939489,35.6697307 C74.169767,35.6697307 75.7929886,36.2843642 75.7929886,37.4033148 L75.7929886,38.5854085 L74.7372273,38.5854085 L74.7372273,37.7657898 C74.7372273,37.0564415 73.5866591,36.6784108 72.5939489,36.6784108 C71.3329261,36.6784108 70.3554034,37.2929983 70.3554034,38.475092 C70.3554034,39.8146295 71.5538352,40.2402017 72.8930966,40.7601205 C74.5006705,41.3591983 76.0925966,41.9737858 76.0925966,44.0066557 C76.0925966,45.9612409 74.5319659,47.1272727 72.4830341,47.1272727 C70.8915682,47.1272727 69.0004943,46.4180625 69.0004943,44.9050653 L69.0004943,43.8492119 L70.0562557,43.8492119" id="Fill-12" fill="#787976"></path>
                    <path d="M87.4381193,41.6113108 C87.9581761,41.6113108 88.3999943,41.5481676 88.7778409,41.3907239 C89.5975057,41.0598665 90.086267,40.2718193 90.086267,39.1843943 C90.086267,38.1757602 89.6605568,37.450442 88.9356989,37.0724114 C88.5417443,36.8989977 88.0212273,36.8042369 87.4381193,36.8042369 L85.0430966,36.8042369 L85.0430966,41.6113108 L87.4381193,41.6113108 Z M82.4897557,46.0239699 L83.9394716,46.0239699 L83.9394716,36.7730795 L82.4897557,36.7730795 L82.4897557,35.858746 L87.5329261,35.858746 C88.2103807,35.858746 88.9039432,35.9218892 89.424,36.1740477 C90.511517,36.6628091 91.2050795,37.7657898 91.2050795,39.1843943 C91.2050795,40.7129932 90.4171705,41.8950409 89.1879034,42.3362608 C88.6673864,42.5096744 88.1477898,42.5568477 87.5485739,42.5568477 L85.0430966,42.5568477 L85.0430966,46.0239699 L86.4928125,46.0239699 L86.4928125,46.9381193 L82.4897557,46.9381193 L82.4897557,46.0239699 L82.4897557,46.0239699 Z" id="Fill-13" fill="#787976"></path>
                    <polyline id="Fill-14" fill="#787976" points="97.3021705 46.0239699 98.7518864 46.0239699 98.7518864 36.7730795 97.3021705 36.7730795 97.3021705 35.858746 105.134778 35.858746 105.134778 38.1597903 104.12642 38.1597903 104.12642 36.8042369 99.8555114 36.8042369 99.8555114 40.8864068 104.047261 40.8864068 104.047261 41.8318977 99.8555114 41.8318977 99.8555114 45.9927665 104.425568 45.9927665 104.425568 44.5585142 105.418739 44.5585142 105.418739 46.9381193 97.3021705 46.9381193 97.3021705 46.0239699"></polyline>
                    <path d="M117.379125,35.6697307 C118.718847,35.6697307 121.508284,36.1740477 121.508284,37.8760602 L121.508284,39.058154 L120.452523,39.058154 L120.452523,38.1757602 C120.452523,37.087967 118.560989,36.6628091 117.426528,36.6628091 C114.85754,36.6628091 112.919063,38.6169341 112.919063,41.2960551 C112.919063,44.0541972 114.85754,46.1341023 117.489119,46.1341023 C118.387483,46.1341023 120.625568,45.7877813 120.625568,44.6212892 L120.625568,43.7545432 L121.68179,43.7545432 L121.68179,44.9365909 C121.68179,46.5441648 118.986699,47.1272727 117.458284,47.1272727 C114.14833,47.1272727 111.768494,44.5425903 111.768494,41.3275807 C111.768494,38.0966472 114.21092,35.6697307 117.379125,35.6697307" id="Fill-15" fill="#787976"></path>
                    <polyline id="Fill-16" fill="#787976" points="128.393284 46.0239699 129.84346 46.0239699 129.84346 36.7730795 128.393284 36.7730795 128.393284 35.858746 132.396341 35.858746 132.396341 36.7730795 130.946625 36.7730795 130.946625 46.0239699 132.396341 46.0239699 132.396341 46.9381193 128.393284 46.9381193 128.393284 46.0239699"></polyline>
                    <path d="M145.160744,42.241546 L143.505767,37.7026006 C143.380125,37.3401716 143.332722,36.9936665 143.332722,36.9936665 L143.285318,36.9936665 C143.285318,36.9936665 143.254023,37.3401716 143.12792,37.7026006 L141.441648,42.241546 L145.160744,42.241546 Z M137.832545,46.0239699 L138.967006,46.0239699 L142.70221,35.858746 L143.91583,35.858746 L147.651034,46.0239699 L148.785955,46.0239699 L148.785955,46.9381193 L145.239443,46.9381193 L145.239443,46.0239699 L146.516114,46.0239699 L145.460352,43.1714813 L141.14204,43.1714813 L140.101926,46.0239699 L141.378597,46.0239699 L141.378597,46.9381193 L137.832545,46.9381193 L137.832545,46.0239699 L137.832545,46.0239699 Z" id="Fill-17" fill="#787976"></path>
                    <polyline id="Fill-18" fill="#787976" points="154.268642 46.0239699 155.718358 46.0239699 155.718358 36.8042369 154.268642 36.8042369 154.268642 35.858746 158.271699 35.858746 158.271699 36.8042369 156.821523 36.8042369 156.821523 45.9927665 161.25029 45.9927665 161.25029 44.1485438 162.258648 44.1485438 162.258648 46.9381193 154.268642 46.9381193 154.268642 46.0239699"></polyline>
                    <polyline id="Fill-19" fill="#787976" points="168.482301 46.0239699 169.932477 46.0239699 169.932477 36.7730795 168.482301 36.7730795 168.482301 35.858746 172.485358 35.858746 172.485358 36.7730795 171.035182 36.7730795 171.035182 46.0239699 172.485358 46.0239699 172.485358 46.9381193 168.482301 46.9381193 168.482301 46.0239699"></polyline>
                    <path d="M180.395744,43.8492119 L180.395744,44.6528608 C180.395744,45.582796 181.546313,46.1184545 182.822523,46.1184545 C184.257051,46.1184545 185.297165,45.4093824 185.297165,44.1169722 C185.297165,42.6671642 183.957443,42.1628472 182.523375,41.6269125 C181.073659,41.0754682 179.560432,40.4924063 179.560432,38.5538369 C179.560432,36.6152676 181.120602,35.6697307 182.933438,35.6697307 C184.508795,35.6697307 186.132477,36.2843642 186.132477,37.4033148 L186.132477,38.5854085 L185.076256,38.5854085 L185.076256,37.7657898 C185.076256,37.0564415 183.926148,36.6784108 182.933438,36.6784108 C181.672415,36.6784108 180.694892,37.2929983 180.694892,38.475092 C180.694892,39.8146295 181.892864,40.2402017 183.232585,40.7601205 C184.839699,41.3591983 186.432085,41.9737858 186.432085,44.0066557 C186.432085,45.9612409 184.871455,47.1272727 182.822523,47.1272727 C181.231057,47.1272727 179.339983,46.4180625 179.339983,44.9050653 L179.339983,43.8492119 L180.395744,43.8492119" id="Fill-20" fill="#787976"></path>
                    <polyline id="Fill-21" fill="#787976" points="194.468114 46.0239699 195.91783 46.0239699 195.91783 36.8042369 192.813136 36.8042369 192.813136 38.6009642 191.819966 38.6009642 191.819966 35.858746 201.118398 35.858746 201.118398 38.6009642 200.11004 38.6009642 200.11004 36.8042369 197.020994 36.8042369 197.020994 46.0239699 198.47117 46.0239699 198.47117 46.9381193 194.468114 46.9381193 194.468114 46.0239699"></polyline>
                    <path d="M207.31071,43.8492119 L207.31071,44.6528608 C207.31071,45.582796 208.461324,46.1184545 209.737994,46.1184545 C211.172062,46.1184545 212.21213,45.4093824 212.21213,44.1169722 C212.21213,42.6671642 210.872455,42.1628472 209.438386,41.6269125 C207.98867,41.0754682 206.475443,40.4924063 206.475443,38.5538369 C206.475443,36.6152676 208.035568,35.6697307 209.848449,35.6697307 C211.424267,35.6697307 213.047489,36.2843642 213.047489,37.4033148 L213.047489,38.5854085 L211.991727,38.5854085 L211.991727,37.7657898 C211.991727,37.0564415 210.841159,36.6784108 209.848449,36.6784108 C208.587426,36.6784108 207.609903,37.2929983 207.609903,38.475092 C207.609903,39.8146295 208.808335,40.2402017 210.147597,40.7601205 C211.75517,41.3591983 213.347051,41.9737858 213.347051,44.0066557 C213.347051,45.9612409 211.786466,47.1272727 209.737994,47.1272727 C208.146068,47.1272727 206.254994,46.4180625 206.254994,44.9050653 L206.254994,43.8492119 L207.31071,43.8492119" id="Fill-22" fill="#787976"></path>
                </g>
            </g>
        </g>
    </g>
</svg>