<svg width="30" height="30" viewBox="0 0 30 30" xmlns="http://www.w3.org/2000/svg"><title>youtube</title><path d="M15 0c4.144 0 7.68 1.464 10.608 4.392C28.536 7.321 30 10.856 30 15s-1.464 7.68-4.392 10.608C22.679 28.536 19.144 30 15 30s-7.68-1.464-10.608-4.392C1.464 22.679 0 19.144 0 15S1.464 7.32 4.392 4.392C7.321 1.464 10.856 0 15 0zm0 21.875c4.676 0 7.407-.29 8.194-.868.787-.579 1.181-2.581 1.181-6.007 0-3.426-.394-5.428-1.18-6.007-.788-.579-3.52-.868-8.195-.868-4.676 0-7.407.29-8.194.868-.787.579-1.181 2.581-1.181 6.007 0 3.426.394 5.428 1.18 6.007.788.579 3.52.868 8.195.868zm-2.5-3.125v-7.5L18.75 15l-6.25 3.75z" fill="#FFF" fill-rule="evenodd"/></svg>