<svg width="218" height="48" xmlns="http://www.w3.org/2000/svg"><g fill="none" fill-rule="evenodd"><path d="M3.375 14.392c0 6.73 4.792 11.282 11.062 11.282 6.29 0 11.082-4.553 11.082-11.282 0-6.73-4.792-11.282-11.082-11.282-6.27 0-11.062 4.553-11.062 11.282zm25.499 0c0 8.387-6.13 14.377-14.437 14.377C6.13 28.769 0 22.779 0 14.392S6.13.015 14.437.015c8.307 0 14.437 5.99 14.437 14.377zm165.657 1.498l5.016-12.3 5.124 12.567c-.402.053-.798.11-1.18.17-3.115.488-5.856.915-8.96-.436zm23.264 2.21c-3.658-1.783-6.954-2.25-9.851-2.2L201.584.414h-3.974L186.128 28.37h3.335l3.155-7.788.482-1.182c1.884.445 3.527.626 5.001.626 2.89 0 5.144-.68 7.352-1.344l.214-.064.789 1.964 3.175 7.788h3.434l-4.347-10.586c2.597-.585 5.56-.821 9.077.315zM53.552 3.11c3.693 0 6.868 1.737 8.725 4.493l2.676-1.798c-2.196-3.573-6.53-5.79-11.401-5.79-8.307 0-14.438 5.99-14.438 14.377s6.13 14.377 14.438 14.377c4.832 0 8.985-2.157 11.322-5.651L62.277 21.2c-1.897 2.816-4.991 4.473-8.725 4.473-6.27 0-11.063-4.553-11.063-11.282 0-6.73 4.792-11.282 11.063-11.282m29.33 12.681h15.775v-2.996H82.882V3.43h16.274V.414h-19.49V28.37h19.67v-3.016H82.881V15.79m89.053 7.068L154.621.414h-2.895V28.37h3.215V5.926l17.312 22.444h2.896V.414h-3.215v22.444m-51.759-6.968l5.016-12.3 5.125 12.567c-.403.053-.798.11-1.18.17-3.116.488-5.856.915-8.96-.436zm23.264 2.21c-3.657-1.783-6.953-2.25-9.85-2.2L127.227.414h-3.974l-11.48 27.956h3.334l3.155-7.788.483-1.182c1.883.445 3.526.626 5 .626 2.89 0 5.145-.68 7.352-1.344l.215-.064.788 1.964 3.175 7.788h3.435l-4.348-10.586c2.597-.585 5.56-.821 9.077.315z" fill="#fff"/><path d="M4.376 36.773H3.241v-.914H6.82v.914H5.542l2.869 8.211c.11.347.173.725.173.725h.047s.063-.378.174-.725l2.868-8.21h-1.261v-.915h3.578v.914h-1.15L9.213 46.938H8.001L4.376 36.773m15.049 9.251h1.45v-9.25h-1.45v-.915h7.833v2.3h-1.009v-1.355h-4.27v4.082h4.191v.946h-4.192v4.16h4.57V44.56h.993v2.38h-8.116v-.915m14.939-.001h1.45v-9.25h-1.45v-.915h4.003v.914h-1.45v9.251h1.45v.914h-4.003v-.914m10.778 0h1.45v-9.25h-1.45v-.915h2.522l6.21 8.747c.157.252.33.677.33.677h.032s-.063-.472-.047-.772v-7.738h-1.466v-.914h4.019v.914h-1.45v10.165H54.22l-6.21-8.747c-.157-.252-.33-.677-.33-.677h-.032s.063.472.048.756v7.754h1.465v.914h-4.019v-.914m24.914-2.174v.803c0 .93 1.15 1.465 2.427 1.465 1.435 0 2.475-.709 2.475-2.001 0-1.45-1.34-1.954-2.774-2.49-1.45-.552-2.963-1.135-2.963-3.073 0-1.939 1.56-2.884 3.373-2.884 1.576 0 3.199.614 3.199 1.733v1.182h-1.056v-.82c0-.709-1.15-1.087-2.143-1.087-1.261 0-2.239.615-2.239 1.797 0 1.34 1.199 1.765 2.538 2.285 1.608.6 3.2 1.214 3.2 3.247 0 1.954-1.561 3.12-3.61 3.12-1.591 0-3.483-.709-3.483-2.222V43.85h1.056m17.382-2.239c.52 0 .962-.063 1.34-.22.82-.331 1.308-1.12 1.308-2.207 0-1.008-.425-1.734-1.15-2.112-.394-.173-.915-.268-1.498-.268h-2.395v4.807h2.395zm-4.948 4.413h1.45v-9.25h-1.45v-.915h5.043c.677 0 1.37.063 1.891.315 1.088.489 1.781 1.592 1.781 3.01 0 1.529-.788 2.711-2.017 3.152-.52.174-1.04.22-1.64.22h-2.505v3.468h1.45v.914H82.49v-.914zm14.812 0h1.45v-9.25h-1.45v-.915h7.833v2.3h-1.009v-1.355h-4.27v4.082h4.191v.946h-4.191v4.16h4.57V44.56h.993v2.38h-8.117v-.915M117.38 35.67c1.339 0 4.128.504 4.128 2.206v1.182h-1.055v-.882c0-1.088-1.892-1.513-3.026-1.513-2.57 0-4.508 1.954-4.508 4.633 0 2.758 1.939 4.838 4.57 4.838.898 0 3.137-.346 3.137-1.513v-.866h1.056v1.182c0 1.607-2.695 2.19-4.224 2.19-3.31 0-5.69-2.584-5.69-5.8 0-3.23 2.443-5.657 5.611-5.657m11.014 10.354h1.45v-9.25h-1.45v-.915h4.003v.914h-1.45v9.251h1.45v.914h-4.003v-.914m16.767-3.782l-1.654-4.54c-.126-.362-.173-.708-.173-.708h-.048s-.031.346-.157.709l-1.686 4.539h3.719zm-7.327 3.782h1.134l3.735-10.165h1.214l3.735 10.165h1.135v.914h-3.547v-.914h1.277l-1.056-2.853h-4.318l-1.04 2.853h1.277v.914h-3.546v-.914zm16.436 0h1.45v-9.22h-1.45v-.945h4.003v.945h-1.45v9.189h4.428v-1.844h1.009v2.79h-7.99v-.915m14.213 0h1.45v-9.25h-1.45v-.915h4.003v.914h-1.45v9.251h1.45v.914h-4.003v-.914m11.914-2.174v.803c0 .93 1.15 1.465 2.427 1.465 1.434 0 2.474-.709 2.474-2.001 0-1.45-1.34-1.954-2.774-2.49-1.45-.552-2.963-1.135-2.963-3.073 0-1.939 1.56-2.884 3.373-2.884 1.576 0 3.2.614 3.2 1.733v1.182h-1.057v-.82c0-.709-1.15-1.087-2.143-1.087-1.26 0-2.238.615-2.238 1.797 0 1.34 1.198 1.765 2.538 2.285 1.607.6 3.2 1.214 3.2 3.247 0 1.954-1.562 3.12-3.61 3.12-1.592 0-3.483-.709-3.483-2.222V43.85h1.056m14.072 2.174h1.45v-9.22h-3.105v1.797h-.993v-2.742h9.298V38.6h-1.008v-1.797h-3.089v9.22h1.45v.914h-4.003v-.914m12.842-2.173v.803c0 .93 1.151 1.465 2.428 1.465 1.434 0 2.474-.709 2.474-2.001 0-1.45-1.34-1.954-2.774-2.49-1.45-.552-2.963-1.135-2.963-3.073 0-1.939 1.56-2.884 3.373-2.884 1.576 0 3.2.614 3.2 1.733v1.182h-1.056v-.82c0-.709-1.15-1.087-2.144-1.087-1.26 0-2.238.615-2.238 1.797 0 1.34 1.198 1.765 2.538 2.285 1.607.6 3.2 1.214 3.2 3.247 0 1.954-1.562 3.12-3.61 3.12-1.592 0-3.483-.709-3.483-2.222V43.85h1.056" fill="#fff"/></g></svg>