<svg width="95" height="32" fill="none" xmlns="http://www.w3.org/2000/svg"><path d="M40.26 16.41c0 4.442-3.474 7.715-7.738 7.715-4.265 0-7.74-3.273-7.74-7.715 0-4.473 3.475-7.714 7.74-7.714 4.264 0 7.739 3.241 7.739 7.714zm-3.387 0c0-2.775-2.014-4.674-4.351-4.674-2.338 0-4.352 1.899-4.352 4.674 0 2.748 2.014 4.675 4.352 4.675 2.337 0 4.351-1.93 4.351-4.675z" fill="#EA4335"/><path d="M56.956 16.41c0 4.442-3.474 7.715-7.739 7.715-4.264 0-7.739-3.273-7.739-7.715 0-4.47 3.475-7.714 7.74-7.714 4.264 0 7.738 3.241 7.738 7.714zm-3.387 0c0-2.775-2.014-4.674-4.352-4.674-2.337 0-4.35 1.899-4.35 4.674 0 2.748 2.013 4.675 4.35 4.675 2.338 0 4.352-1.93 4.352-4.675z" fill="#FBBC05"/><path d="M72.957 9.162v13.85c0 5.697-3.36 8.024-7.333 8.024-3.739 0-5.99-2.5-6.838-4.546l2.95-1.227C62.26 26.517 63.548 28 65.62 28c2.543 0 4.118-1.569 4.118-4.522v-1.11h-.118c-.758.936-2.22 1.754-4.063 1.754-3.857 0-7.391-3.36-7.391-7.684 0-4.355 3.534-7.742 7.391-7.742 1.84 0 3.301.817 4.063 1.725h.118V9.165h3.218v-.003zm-2.978 7.276c0-2.716-1.812-4.702-4.118-4.702-2.338 0-4.296 1.986-4.296 4.702 0 2.689 1.959 4.647 4.296 4.647 2.306 0 4.118-1.958 4.118-4.647z" fill="#4285F4"/><path d="M78.26 1.043v22.61h-3.303V1.042h3.304z" fill="#34A853"/><path d="M91.137 18.95l2.63 1.753c-.849 1.255-2.894 3.419-6.428 3.419-4.382 0-7.656-3.388-7.656-7.715 0-4.588 3.301-7.715 7.277-7.715 4.004 0 5.962 3.186 6.602 4.908l.351.877-10.313 4.27c.79 1.549 2.017 2.338 3.74 2.338 1.724 0 2.92-.849 3.797-2.136zm-8.094-2.776l6.894-2.863c-.379-.963-1.52-1.634-2.862-1.634-1.722 0-4.118 1.52-4.032 4.497z" fill="#EA4335"/><path d="M12.275 14.404V11.13h11.03c.107.571.163 1.246.163 1.976 0 2.456-.671 5.492-2.835 7.656-2.104 2.191-4.793 3.36-8.355 3.36-6.601 0-12.153-5.378-12.153-11.98C.125 5.542 5.677.165 12.278.165c3.652 0 6.254 1.433 8.209 3.3l-2.31 2.31c-1.401-1.315-3.3-2.337-5.902-2.337-4.821 0-8.591 3.885-8.591 8.706 0 4.82 3.77 8.706 8.59 8.706 3.128 0 4.909-1.256 6.05-2.397.925-.925 1.533-2.247 1.773-4.052l-7.822.004z" fill="#4285F4"/></svg>